<svg width="16" height="16" viewBox="0 0 16 16" fill="none" xmlns="http://www.w3.org/2000/svg">
<g clip-path="url(#clip0_3617_9042)">
<path d="M7.99902 16C12.41 16 15.999 12.411 15.999 8C15.999 3.589 12.41 0 7.99902 0C3.58852 0 -0.000976562 3.589 -0.000976562 8C-0.000976562 12.411 3.58852 16 7.99902 16ZM8.30752 14.9845C8.20452 14.989 8.10302 15 7.99952 15C7.89502 15 7.79452 14.989 7.69152 14.9845C6.89652 14.6735 6.09952 13.1975 5.70352 11H10.295C9.89852 13.1975 9.10202 14.6735 8.30752 14.9845ZM5.55852 10C5.40868 8.67088 5.40868 7.32912 5.55852 6H10.44C10.5899 7.32912 10.5899 8.67088 10.44 10H5.55852ZM9.87302 14.7375C10.478 13.8665 10.9455 12.571 11.2075 11H14.3135C13.8826 11.9036 13.2635 12.7045 12.4976 13.3492C11.7318 13.9938 10.8369 14.4671 9.87302 14.7375ZM14.9995 8C14.9995 8.695 14.8945 9.3655 14.7045 10H11.341C11.4075 9.364 11.446 8.6975 11.446 8C11.446 7.3025 11.407 6.636 11.341 6H14.7045C14.894 6.6345 14.9995 7.305 14.9995 8ZM14.3145 5H11.208C10.946 3.4285 10.479 2.1335 9.87302 1.2625C10.8371 1.53267 11.7323 2.00595 12.4985 2.65058C13.2646 3.29521 13.8835 4.09627 14.3145 5ZM7.69102 1.0155C7.79402 1.011 7.89502 1 7.99902 1C8.10252 1 8.20402 1.011 8.30652 1.0155C9.10152 1.3265 9.89902 2.8025 10.295 5H5.70352C6.09952 2.8025 6.89652 1.3265 7.69102 1.0155ZM6.12502 1.262C5.51952 2.133 5.05202 3.4285 4.79002 4.9995H1.68502C2.11596 4.09588 2.73518 3.29488 3.50115 2.65026C4.26711 2.00563 5.16208 1.53229 6.12602 1.262H6.12502ZM0.999023 7.9995C0.999023 7.3045 1.10402 6.634 1.29402 5.9995H4.65752C4.58742 6.66387 4.55204 7.33144 4.55152 7.9995C4.55152 8.697 4.59102 9.3635 4.65752 9.9995H1.29402C1.0991 9.35069 0.999723 8.67695 0.999023 7.9995ZM4.79052 10.9995C5.05202 12.571 5.51902 13.866 6.12452 14.737C5.16068 14.4666 4.2658 13.9933 3.49992 13.3487C2.73405 12.704 2.11491 11.9031 1.68402 10.9995H4.79052Z" fill="#757677"/>
</g>
<defs>
<clipPath id="clip0_3617_9042">
<rect width="16" height="16" fill="white"/>
</clipPath>
</defs>
</svg>
