<svg width="16" height="16" viewBox="0 0 16 16" fill="none" xmlns="http://www.w3.org/2000/svg">
<g clip-path="url(#clip0_3617_9049)">
<path d="M1.20963 12.9378L1.91524 14.1566C2.06186 14.4132 2.27262 14.6148 2.52005 14.7614L5.04011 10.3994H0C0 10.6835 0.0733112 10.9676 0.219932 11.2241L1.20963 12.9378Z" fill="#0066DA"/>
<path d="M8.00001 5.26725L5.47997 0.905273C5.23254 1.05189 5.02176 1.25349 4.87515 1.51009L0.219932 9.57424C0.0733112 9.83084 0 10.1149 0 10.399H5.04011L8.00001 5.26725Z" fill="#00AC47"/>
<path d="M8.00004 5.26745L10.5201 0.905478C10.2727 0.758856 9.98858 0.685547 9.69535 0.685547H6.30473C6.01148 0.685547 5.72741 0.76802 5.47998 0.905478L8.00004 5.26745Z" fill="#00832D"/>
<path d="M10.9599 10.3994H5.04006L2.52002 14.7614C2.76745 14.908 3.05152 14.9813 3.34477 14.9813H12.6552C12.9484 14.9813 13.2325 14.8988 13.4799 14.7614L10.9599 10.3994Z" fill="#2684FC"/>
<path d="M13.4799 14.7614C13.7273 14.6148 13.9381 14.4132 14.0847 14.1566L14.3779 13.6526L15.78 11.2241C15.9266 10.9676 15.9999 10.6835 15.9999 10.3994H10.969L13.4799 14.7614Z" fill="#EA4335"/>
<path d="M13.4525 5.54217L11.1249 1.51009C10.9782 1.25349 10.7675 1.05189 10.52 0.905273L8 5.26725L10.9599 10.399H15.9909C15.9909 10.1149 15.9175 9.83084 15.7709 9.57424L13.4525 5.54217Z" fill="#FFBA00"/>
</g>
<defs>
<clipPath id="clip0_3617_9049">
<rect width="16" height="16" fill="white"/>
</clipPath>
</defs>
</svg>
