<svg width="16" height="16" viewBox="0 0 16 16" fill="none" xmlns="http://www.w3.org/2000/svg">
<g clip-path="url(#clip0_188_12937)">
<path d="M8 16C3.6 16 0 12.4 0 8C0 3.6 3.6 0 8 0C12.4 0 16 3.6 16 8C16 12.4 12.4 16 8 16ZM8 1C4.15 1 1 4.15 1 8C1 11.85 4.15 15 8 15C11.85 15 15 11.85 15 8C15 4.15 11.85 1 8 1ZM11.4 6.45C11.6 6.25 11.6 5.95 11.4 5.75C11.2 5.55 10.9 5.55 10.7 5.75L6.4 10.05L4.85 8.5C4.65 8.3 4.3 8.3 4.15 8.5C4 8.7 4 9 4.15 9.2L6.05 11.1C6.25 11.3 6.55 11.3 6.75 11.1L11.4 6.45Z" fill="#6D6E6F"/>
</g>
<defs>
<clipPath id="clip0_188_12937">
<rect width="16" height="16" fill="white"/>
</clipPath>
</defs>
</svg>
