<svg width="24" height="24" viewBox="0 0 24 24" fill="none" xmlns="http://www.w3.org/2000/svg">
<g clip-path="url(#clip0_188_13034)">
<path d="M5.628 22.164C4.71244 21.5937 3.8805 20.8991 3.156 20.1H4.656C4.94342 20.8046 5.26787 21.4936 5.628 22.164ZM3.228 12.9H0C0.136643 14.8156 0.737986 16.6691 1.752 18.3H4.02C3.49953 16.5461 3.22096 14.7293 3.192 12.9H3.228ZM1.824 5.7C0.781052 7.32255 0.154538 9.17736 0 11.1H3.228C3.34986 9.25614 3.72956 7.43846 4.356 5.7H1.824ZM3.192 3.9H5.1C5.36178 3.32807 5.66248 2.77477 6 2.244C6.18 1.932 6.384 1.632 6.6 1.32C5.30222 1.95944 4.13443 2.83426 3.156 3.9H3.192ZM9.888 0.192C8.97146 1.07965 8.16561 2.07488 7.488 3.156C7.344 3.396 7.212 3.648 7.08 3.9H11.088V0C10.6847 0.0409903 10.284 0.105096 9.888 0.192ZM6.288 5.7C5.61471 7.4282 5.21002 9.2493 5.088 11.1H11.16V5.7H6.288ZM5.004 12.9C5.04002 14.7361 5.35149 16.5564 5.928 18.3H11.112V12.9H5.004ZM6.624 20.1C7.09562 21.1418 7.662 22.1379 8.316 23.076L8.616 23.508C9.42905 23.7498 10.266 23.9027 11.112 23.964V20.1H6.624ZM12.9 24C13.5225 23.9519 14.1404 23.8556 14.748 23.712L15.168 23.112C15.822 22.1739 16.3884 21.1778 16.86 20.136H12.9V24ZM18.828 20.136C18.4891 20.9999 18.0881 21.8381 17.628 22.644C18.8485 22.0072 19.9457 21.1579 20.868 20.136H18.828ZM15.972 3.156C15.3019 2.0441 14.4957 1.02018 13.572 0.108C13.3502 0.0593137 13.1259 0.0232558 12.9 0V3.9H16.38C16.2662 3.64044 16.1297 3.39147 15.972 3.156ZM16.656 0.948C16.966 1.36494 17.2544 1.79751 17.52 2.244C17.841 2.77816 18.1295 3.33116 18.384 3.9H20.844C19.6838 2.61805 18.2534 1.60978 16.656 0.948ZM17.196 5.748H12.9V11.148H18.456C18.3206 9.27771 17.8956 7.43981 17.196 5.7V5.748ZM22.212 5.748H19.128C19.7544 7.48646 20.1341 9.30414 20.256 11.148H24C23.8563 9.21354 23.2426 7.3434 22.212 5.7V5.748ZM12.9 12.948V18.348H17.568C18.1445 16.6044 18.456 14.7841 18.492 12.948H12.9ZM20.292 12.948C20.263 14.7773 19.9845 16.5941 19.464 18.348H22.212C23.2426 16.7046 23.8563 14.8345 24 12.9L20.292 12.948Z" fill="white"/>
<path d="M24 12.9V11.1H20.256C20.1341 9.25614 19.7544 7.43846 19.128 5.7H22.212C21.8183 5.0551 21.3599 4.45198 20.844 3.9H18.384C18.1295 3.33116 17.841 2.77816 17.52 2.244C17.2544 1.79751 16.966 1.36494 16.656 0.948C15.6678 0.5285 14.6257 0.249781 13.56 0.12C14.4837 1.03218 15.2899 2.0561 15.96 3.168C16.104 3.408 16.248 3.66 16.368 3.912H12.888V0H11.088V3.9H7.092C7.224 3.648 7.356 3.396 7.5 3.156C8.17761 2.07488 8.98346 1.07965 9.9 0.192C8.7488 0.397078 7.63586 0.7775 6.6 1.32C6.384 1.632 6.18 1.932 6 2.244C5.67353 2.7731 5.38867 3.32676 5.148 3.9H3.156C2.64005 4.45198 2.18169 5.0551 1.788 5.7H4.356C3.72956 7.43846 3.34986 9.25614 3.228 11.1H0V12.9H3.192C3.22096 14.7293 3.49953 16.5461 4.02 18.3H1.788C2.18169 18.9449 2.64005 19.548 3.156 20.1H4.656C4.94342 20.8046 5.26787 21.4936 5.628 22.164C6.55334 22.747 7.55481 23.1993 8.604 23.508L8.304 23.076C7.65 22.1379 7.08362 21.1418 6.612 20.1H11.1V24H12.9V20.1H16.872C16.4004 21.1418 15.834 22.1379 15.18 23.076L14.76 23.676C15.7512 23.4478 16.7076 23.0886 17.604 22.608C18.0641 21.8021 18.4651 20.9639 18.804 20.1H20.82C21.3359 19.548 21.7943 18.9449 22.188 18.3H19.464C19.9845 16.5461 20.263 14.7293 20.292 12.9H24ZM11.136 18.3H5.916C5.33949 16.5564 5.02802 14.7361 4.992 12.9H11.1L11.136 18.3ZM11.136 11.1H5.028C5.15002 9.2493 5.55471 7.4282 6.228 5.7H11.028L11.136 11.1ZM12.936 5.7H17.232C17.9258 7.42492 18.3508 9.24613 18.492 11.1H12.9L12.936 5.7ZM12.936 18.3V12.9H18.528C18.492 14.7361 18.1805 16.5564 17.604 18.3H12.936Z" fill="#1E1F21" fill-opacity="0.75"/>
</g>
<defs>
<clipPath id="clip0_188_13034">
<rect width="24" height="24" fill="white"/>
</clipPath>
</defs>
</svg>
