<svg width="24" height="24" viewBox="0 0 24 24" fill="none" xmlns="http://www.w3.org/2000/svg">
<g clip-path="url(#clip0_188_12989)">
<path d="M22 21.2L22.4 23.7C22.4 24 22.2 24.1 21.9 24L19.4 22.7C18.8 22.9 18.2 23 17.5 23C13.9 23 11.1 20.2 11 16.6V16.5C11 13.1 13.6 10.3 16.9 10C17.1 10 17.3 10 17.5 10C21.1 10 24 12.9 24 16.5C24 18.3 23.2 20 22 21.2Z" fill="white"/>
<path d="M17 8.5C17 9 17 9.5 16.9 10C13.6 10.3 11 13.1 11 16.5V16.6C10.2 16.9 9.4 17 8.5 17C7.6 17 6.7 16.8 5.8 16.6L2.4 18.3C2.1 18.5 1.7 18.2 1.8 17.8L2.4 14.4C0.9 12.8 0 10.8 0 8.5C0 3.8 3.8 0 8.5 0C13.2 0 17 3.8 17 8.5Z" fill="#1E1F21" fill-opacity="0.75"/>
</g>
<defs>
<clipPath id="clip0_188_12989">
<rect width="24" height="24" fill="white"/>
</clipPath>
</defs>
</svg>
