<svg width="24" height="24" viewBox="0 0 24 24" fill="none" xmlns="http://www.w3.org/2000/svg">
<g clip-path="url(#clip0_188_12982)">
<path fill-rule="evenodd" clip-rule="evenodd" d="M15 24H9V23H15V24ZM8.5 5H15.5C16.5 7.2 17 9.6 17 12.1V21H7V12.1C7 9.6 7.5 7.2 8.5 5ZM12.0001 13C13.1001 13 14.0001 12.1 14.0001 11C14.0001 9.9 13.1001 9 12.0001 9C10.9001 9 10.0001 9.9 10.0001 11C10.0001 12.1 10.9001 13 12.0001 13Z" fill="white"/>
<path fill-rule="evenodd" clip-rule="evenodd" d="M7 21H0V17L7 14V21ZM8.5 5C9.3 3.2 10.5 1.5 12 0C13.5 1.5 14.6 3.2 15.5 5H8.5ZM16 21V23H8V21H16ZM17 21V14L24 17V21H17ZM12 13C13.1046 13 14 12.1046 14 11C14 9.89543 13.1046 9 12 9C10.8955 9 10 9.89543 10 11C10 12.1046 10.8955 13 12 13Z" fill="#1E1F21" fill-opacity="0.75"/>
</g>
<defs>
<clipPath id="clip0_188_12982">
<rect width="24" height="24" fill="white"/>
</clipPath>
</defs>
</svg>
