<svg width="24" height="24" viewBox="0 0 24 24" fill="none" xmlns="http://www.w3.org/2000/svg">
<g clip-path="url(#clip0_188_13020)">
<path d="M9 8.5C9 10.4 7.4 12 5.5 12C3.6 12 2 10.4 2 8.5C2 6.6 3.6 5 5.5 5C7.4 5 9 6.6 9 8.5ZM11 18.5C11 15.5 8.5 13 5.5 13C2.5 13 0 15.5 0 18.5V19H11V18.5Z" fill="#1E1F21" fill-opacity="0.75"/>
<path d="M21.9999 8.5C21.9999 10.4 20.3999 12 18.4999 12C16.5999 12 14.9999 10.4 14.9999 8.5C14.9999 6.6 16.5999 5 18.4999 5C20.3999 5 21.9999 6.6 21.9999 8.5ZM23.9999 18.5C23.9999 15.5 21.4999 13 18.4999 13C15.4999 13 12.9999 15.5 12.9999 18.5V19H23.9999V18.5Z" fill="white"/>
</g>
<defs>
<clipPath id="clip0_188_13020">
<rect width="24" height="24" fill="white"/>
</clipPath>
</defs>
</svg>
