<svg width="24" height="24" viewBox="0 0 24 24" fill="none" xmlns="http://www.w3.org/2000/svg">
<g clip-path="url(#clip0_188_13027)">
<path d="M22 3.9L19 6.9L18 5.9L18.9 4.8C17.5 4.8 16.4 5.3 15.3 6.3C13.3 8.1 12.4 10.4 11.4 13C10.9 14.4 10.3 15.9 9.5 17.3C8.8 18.5 8 19.6 7.1 20.4C6.1 21.4 5.1 22 4 22.5C3.1 22.8 2.2 23 1.3 23H1V20.9C3.6 21 5.9 19.5 7.7 16.3C8.4 15 9 13.6 9.5 12.2C10.5 9.6 11.6 6.8 14 4.8C15.6 3.4 17 2.7 18.8 2.8L18 1.9L19 0.900002L22 3.9Z" fill="#1E1F21" fill-opacity="0.75"/>
<path d="M5.90005 4.5L8.70005 7.3L7.30005 8.7L4.50005 5.9L1.70005 8.7L0.300049 7.3L3.10005 4.5L0.300049 1.7L1.70005 0.299999L4.50005 3.1L7.30005 0.299999L8.70005 1.7L5.90005 4.5Z" fill="white"/>
<path d="M18.5 24C16 24 14 22 14 19.5C14 17 16 15 18.5 15C21 15 23 17 23 19.5C23 22 21 24 18.5 24ZM18.5 17C17.1 17 16 18.1 16 19.5C16 20.9 17.1 22 18.5 22C19.9 22 21 20.9 21 19.5C21 18.1 19.9 17 18.5 17Z" fill="white"/>
</g>
<defs>
<clipPath id="clip0_188_13027">
<rect width="24" height="24" fill="white"/>
</clipPath>
</defs>
</svg>
