<svg width="12" height="12" viewBox="0 0 12 12" fill="none" xmlns="http://www.w3.org/2000/svg">
<g clip-path="url(#clip0_8349_566)">
<path d="M8 7C9.9295 7 11.5 5.43 11.5 3.5C11.5 1.57 9.9295 0 8 0C6.0705 0 4.5 1.57 4.5 3.5C4.5 5.43 6.0705 7 8 7ZM8 1C9.3785 1 10.5 2.1215 10.5 3.5C10.5 4.8785 9.3785 6 8 6C6.6215 6 5.5 4.8785 5.5 3.5C5.5 2.1215 6.6215 1 8 1ZM12 10.5V11.5C12 11.6326 11.9473 11.7598 11.8536 11.8536C11.7598 11.9473 11.6326 12 11.5 12C11.3674 12 11.2402 11.9473 11.1464 11.8536C11.0527 11.7598 11 11.6326 11 11.5V10.5C11 9.673 10.327 9 9.5 9H6.5C5.673 9 5 9.673 5 10.5V11.5C5 11.6326 4.94732 11.7598 4.85355 11.8536C4.75979 11.9473 4.63261 12 4.5 12C4.36739 12 4.24021 11.9473 4.14645 11.8536C4.05268 11.7598 4 11.6326 4 11.5V10.5C4 9.1215 5.1215 8 6.5 8H9.5C10.8785 8 12 9.1215 12 10.5ZM0.5 3.5C0.5 1.57 2.0705 0 4 0C4.13261 0 4.25979 0.0526784 4.35355 0.146447C4.44732 0.240215 4.5 0.367392 4.5 0.5C4.5 0.632608 4.44732 0.759785 4.35355 0.853553C4.25979 0.947322 4.13261 1 4 1C2.6215 1 1.5 2.1215 1.5 3.5C1.5 4.8785 2.6215 6 4 6C4.13261 6 4.25979 6.05268 4.35355 6.14645C4.44732 6.24021 4.5 6.36739 4.5 6.5C4.5 6.63261 4.44732 6.75979 4.35355 6.85355C4.25979 6.94732 4.13261 7 4 7C2.0705 7 0.5 5.43 0.5 3.5ZM3.5 8.5C3.5 8.63261 3.44732 8.75979 3.35355 8.85355C3.25979 8.94732 3.13261 9 3 9H2.5C1.673 9 1 9.673 1 10.5V11.5C1 11.6326 0.947322 11.7598 0.853553 11.8536C0.759785 11.9473 0.632608 12 0.5 12C0.367392 12 0.240215 11.9473 0.146447 11.8536C0.0526784 11.7598 0 11.6326 0 11.5V10.5C0 9.1215 1.1215 8 2.5 8H3C3.13261 8 3.25979 8.05268 3.35355 8.14645C3.44732 8.24021 3.5 8.36739 3.5 8.5Z" fill="#1E1F21"/>
</g>
<defs>
<clipPath id="clip0_8349_566">
<rect width="12" height="12" fill="white"/>
</clipPath>
</defs>
</svg>
