<svg width="48" height="48" viewBox="0 0 48 48" fill="none" xmlns="http://www.w3.org/2000/svg">
<rect width="48" height="48" rx="24" fill="#77D3E9"/>
<mask id="path-2-inside-1_3617_8769" fill="white">
<path fill-rule="evenodd" clip-rule="evenodd" d="M8.31939 17.9335C7.07508 13.6496 9.57674 9.30873 13.9073 8.23816C18.2377 7.16766 22.7566 9.77286 24.001 14.0565C24.0147 14.1053 24.0714 14.1272 24.1147 14.1009C24.7866 13.692 25.5348 13.3747 26.3477 13.1737C30.6942 12.0994 35.2306 14.7139 36.4795 19.0136L39.6778 30.0272C40.9267 34.327 38.416 38.6841 34.0694 39.7587C29.7227 40.8332 25.1865 38.2186 23.9376 33.9188C23.9287 33.8889 23.8938 33.8756 23.8671 33.8918C23.1943 34.303 22.4442 34.6216 21.629 34.8231C17.2985 35.8935 12.7795 33.2885 11.5352 29.0048L8.31939 17.9335Z"/>
</mask>
<path fill-rule="evenodd" clip-rule="evenodd" d="M8.31939 17.9335C7.07508 13.6496 9.57674 9.30873 13.9073 8.23816C18.2377 7.16766 22.7566 9.77286 24.001 14.0565C24.0147 14.1053 24.0714 14.1272 24.1147 14.1009C24.7866 13.692 25.5348 13.3747 26.3477 13.1737C30.6942 12.0994 35.2306 14.7139 36.4795 19.0136L39.6778 30.0272C40.9267 34.327 38.416 38.6841 34.0694 39.7587C29.7227 40.8332 25.1865 38.2186 23.9376 33.9188C23.9287 33.8889 23.8938 33.8756 23.8671 33.8918C23.1943 34.303 22.4442 34.6216 21.629 34.8231C17.2985 35.8935 12.7795 33.2885 11.5352 29.0048L8.31939 17.9335Z" fill="white"/>
<path d="M8.31939 17.9335L6.87892 18.3519L6.87892 18.3519L8.31939 17.9335ZM13.9073 8.23816L13.5473 6.78199L13.5473 6.782L13.9073 8.23816ZM24.001 14.0565L25.4455 13.6521L25.4435 13.6451L25.4415 13.6381L24.001 14.0565ZM26.3477 13.1737L25.9878 11.7175L25.9877 11.7175L26.3477 13.1737ZM36.4795 19.0136L37.92 18.5952L37.92 18.5951L36.4795 19.0136ZM39.6778 30.0272L38.2373 30.4455L38.2373 30.4456L39.6778 30.0272ZM34.0694 39.7587L34.4294 41.2148L34.4294 41.2148L34.0694 39.7587ZM23.9376 33.9188L25.378 33.5004L25.3762 33.4943L23.9376 33.9188ZM21.629 34.8231L21.9889 36.2793L21.9889 36.2793L21.629 34.8231ZM11.5352 29.0048L10.0947 29.4232L10.0947 29.4232L11.5352 29.0048ZM23.8671 33.8918L24.6493 35.1718L23.8671 33.8918ZM24.1147 14.1009L23.3349 12.8195L24.1147 14.1009ZM8.31939 17.9335L9.75985 17.5151C8.75321 14.0494 10.7641 10.5604 14.2673 9.69433L13.9073 8.23816L13.5473 6.782C8.38939 8.0571 5.39696 13.2498 6.87892 18.3519L8.31939 17.9335ZM13.9073 8.23816L14.2672 9.69433C17.8161 8.81703 21.5406 10.9641 22.5606 14.475L24.001 14.0565L25.4415 13.6381C23.9725 8.58166 18.6593 5.5183 13.5473 6.78199L13.9073 8.23816ZM24.1147 14.1009L24.8944 15.3823C25.4377 15.0517 26.0446 14.7938 26.7077 14.6299L26.3477 13.1737L25.9877 11.7175C25.0249 11.9556 24.1354 12.3324 23.3349 12.8195L24.1147 14.1009ZM26.3477 13.1737L26.7076 14.6299C30.2729 13.7487 34.0147 15.9053 35.0391 19.432L36.4795 19.0136L37.92 18.5951C36.4465 13.5225 31.1156 10.4502 25.9878 11.7175L26.3477 13.1737ZM36.4795 19.0136L35.0391 19.4319L38.2373 30.4455L39.6778 30.0272L41.1183 29.6089L37.92 18.5952L36.4795 19.0136ZM39.6778 30.0272L38.2373 30.4456C39.2486 33.9273 37.2286 37.4325 33.7094 38.3025L34.0694 39.7587L34.4294 41.2148C39.6035 39.9357 42.6049 34.7267 41.1182 29.6088L39.6778 30.0272ZM34.0694 39.7587L33.7094 38.3025C30.1441 39.1839 26.4025 37.0273 25.378 33.5004L23.9376 33.9188L22.4971 34.3372C23.9706 39.41 29.3013 42.4825 34.4294 41.2148L34.0694 39.7587ZM23.8671 33.8918L23.0849 32.6119C22.5418 32.9439 21.934 33.2026 21.269 33.367L21.629 34.8231L21.9889 36.2793C22.9545 36.0406 23.8468 35.6622 24.6493 35.1718L23.8671 33.8918ZM21.629 34.8231L21.269 33.3669C17.72 34.2442 13.9955 32.0972 12.9757 28.5864L11.5352 29.0048L10.0947 29.4232C11.5635 34.4798 16.877 37.5428 21.9889 36.2793L21.629 34.8231ZM11.5352 29.0048L12.9757 28.5864L9.75985 17.5151L8.31939 17.9335L6.87892 18.3519L10.0947 29.4232L11.5352 29.0048ZM23.9376 33.9188L25.3762 33.4943C25.0859 32.5105 23.9459 32.0858 23.0849 32.6119L23.8671 33.8918L24.6493 35.1718C23.8416 35.6654 22.7715 35.2673 22.4989 34.3434L23.9376 33.9188ZM24.001 14.0565L22.5566 14.461C22.8419 15.4799 24.0142 15.918 24.8944 15.3823L24.1147 14.1009L23.3349 12.8195C24.1286 12.3365 25.1875 12.7306 25.4455 13.6521L24.001 14.0565Z" fill="black" mask="url(#path-2-inside-1_3617_8769)"/>
<path d="M27.5 20.5C27.8727 20.5 28.2268 20.6043 28.5479 20.791C28.1347 21.0492 27.759 21.491 27.5449 22.0234C27.1698 22.9568 27.433 23.8151 28.1328 23.9404C28.7618 24.0528 29.5277 23.5342 29.9492 22.751C30.0606 23.1392 30.125 23.5596 30.125 24C30.125 25.933 28.9497 27.5 27.5 27.5C26.0503 27.5 24.875 25.933 24.875 24C24.875 22.067 26.0503 20.5 27.5 20.5Z" fill="black"/>
<path d="M20.5 20.5C20.8204 20.5 21.1273 20.5767 21.4111 20.7168C20.9612 20.9607 20.544 21.4244 20.3154 21.9932C19.944 22.9175 20.2103 23.7683 20.9102 23.8936C21.6098 24.0185 22.4785 23.3716 22.8506 22.4482C23.0246 22.9161 23.125 23.4424 23.125 24C23.125 25.933 21.9497 27.5 20.5 27.5C19.0503 27.5 17.875 25.933 17.875 24C17.875 22.067 19.0503 20.5 20.5 20.5Z" fill="black"/>
</svg>
