<svg width="48" height="48" viewBox="0 0 48 48" fill="none" xmlns="http://www.w3.org/2000/svg">
<rect width="48" height="48" rx="24" fill="#F7BD51"/>
<mask id="path-2-inside-1_3617_8714" fill="white">
<path fill-rule="evenodd" clip-rule="evenodd" d="M38.2224 36.4246C38.2224 37.4064 37.4241 38.2119 36.447 38.115C32.8568 37.7588 29.4881 36.3294 26.9089 34.0369C26.4887 33.6633 25.7781 33.9475 25.7781 34.5098V38.1423C25.778 39.124 24.9803 39.9286 24.0027 39.8406C19.9398 39.4737 16.1196 37.8556 13.2068 35.2341C9.87281 32.2336 7.99976 28.1631 7.99976 23.9197C7.99986 19.6764 9.87291 15.6067 13.2068 12.6062C16.1196 9.98464 19.9398 8.36665 24.0027 7.99976C24.9803 7.91176 25.7781 8.71632 25.7781 9.698V13.4507C25.7781 14.0129 26.4887 14.2971 26.9089 13.9236C29.488 11.6312 32.8569 10.2026 36.447 9.84644C37.424 9.74952 38.2223 10.5541 38.2224 11.5359V36.4246Z"/>
</mask>
<path fill-rule="evenodd" clip-rule="evenodd" d="M38.2224 36.4246C38.2224 37.4064 37.4241 38.2119 36.447 38.115C32.8568 37.7588 29.4881 36.3294 26.9089 34.0369C26.4887 33.6633 25.7781 33.9475 25.7781 34.5098V38.1423C25.778 39.124 24.9803 39.9286 24.0027 39.8406C19.9398 39.4737 16.1196 37.8556 13.2068 35.2341C9.87281 32.2336 7.99976 28.1631 7.99976 23.9197C7.99986 19.6764 9.87291 15.6067 13.2068 12.6062C16.1196 9.98464 19.9398 8.36665 24.0027 7.99976C24.9803 7.91176 25.7781 8.71632 25.7781 9.698V13.4507C25.7781 14.0129 26.4887 14.2971 26.9089 13.9236C29.488 11.6312 32.8569 10.2026 36.447 9.84644C37.424 9.74952 38.2223 10.5541 38.2224 11.5359V36.4246Z" fill="white"/>
<path d="M38.2224 36.4246L36.7224 36.4246V36.4246L38.2224 36.4246ZM36.447 38.115L36.2989 39.6077L36.2989 39.6077L36.447 38.115ZM26.9089 34.0369L25.9124 35.158L25.9124 35.158L26.9089 34.0369ZM25.7781 38.1423L27.2781 38.1424V38.1423L25.7781 38.1423ZM24.0027 39.8406L23.8678 41.3345L23.8682 41.3345L24.0027 39.8406ZM13.2068 35.2341L12.2033 36.3491L12.2034 36.3491L13.2068 35.2341ZM7.99976 23.9197L6.49976 23.9196V23.9197L7.99976 23.9197ZM13.2068 12.6062L12.2033 11.4913V11.4913L13.2068 12.6062ZM24.0027 7.99976L23.8682 6.5058L23.8678 6.50584L24.0027 7.99976ZM25.7781 9.698L27.2781 9.698V9.698L25.7781 9.698ZM26.9089 13.9236L25.9124 12.8024L25.9124 12.8025L26.9089 13.9236ZM36.447 9.84644L36.2989 8.35377L36.2989 8.35377L36.447 9.84644ZM38.2224 11.5359L39.7224 11.5359V11.5358L38.2224 11.5359ZM38.2224 36.4246L36.7224 36.4246C36.7224 36.5066 36.6895 36.5659 36.6568 36.5975C36.6415 36.6124 36.6294 36.6182 36.6237 36.6202C36.62 36.6216 36.6127 36.6241 36.5951 36.6223L36.447 38.115L36.2989 39.6077C38.2581 39.802 39.7224 38.1902 39.7224 36.4246L38.2224 36.4246ZM36.447 38.115L36.5951 36.6223C33.2997 36.2954 30.2334 34.985 27.9055 32.9158L26.9089 34.0369L25.9124 35.158C28.7427 37.6738 32.4138 39.2222 36.2989 39.6077L36.447 38.115ZM25.7781 34.5098L24.2781 34.5098V38.1423L25.7781 38.1423L27.2781 38.1423V34.5098L25.7781 34.5098ZM25.7781 38.1423L24.2781 38.1423C24.2781 38.2239 24.2454 38.2839 24.2111 38.3173C24.1948 38.3332 24.181 38.3403 24.1728 38.3433C24.1666 38.3456 24.1567 38.3484 24.1371 38.3466L24.0027 39.8406L23.8682 41.3345C25.8141 41.5097 27.278 39.9122 27.2781 38.1424L25.7781 38.1423ZM24.0027 39.8406L24.1376 38.3467C20.3788 38.0072 16.8685 36.5115 14.2102 34.1192L13.2068 35.2341L12.2034 36.3491C15.3708 39.1997 19.5009 40.9402 23.8678 41.3345L24.0027 39.8406ZM13.2068 35.2341L14.2102 34.1192C11.172 31.3848 9.49976 27.7113 9.49976 23.9197L7.99976 23.9197L6.49976 23.9197C6.49976 28.615 8.5736 33.0823 12.2033 36.3491L13.2068 35.2341ZM7.99976 23.9197L9.49976 23.9197C9.49985 20.1282 11.1721 16.4555 14.2102 13.7211L13.2068 12.6062L12.2033 11.4913C8.57376 14.7579 6.49988 19.2245 6.49976 23.9196L7.99976 23.9197ZM13.2068 12.6062L14.2102 13.7211C16.8685 11.3287 20.3788 9.83312 24.1376 9.49368L24.0027 7.99976L23.8678 6.50584C19.5008 6.90019 15.3708 8.64055 12.2033 11.4913L13.2068 12.6062ZM24.0027 7.99976L24.1372 9.49372C24.1567 9.49196 24.1666 9.49473 24.1729 9.49705C24.1811 9.50006 24.1948 9.50713 24.2111 9.523C24.2454 9.55637 24.2781 9.61637 24.2781 9.698L25.7781 9.698L27.2781 9.698C27.2781 7.92808 25.8141 6.33064 23.8682 6.5058L24.0027 7.99976ZM25.7781 9.698L24.2781 9.698V13.4507L25.7781 13.4507L27.2781 13.4507V9.698L25.7781 9.698ZM26.9089 13.9236L27.9055 15.0447C30.2332 12.9757 33.2996 11.6661 36.5951 11.3391L36.447 9.84644L36.2989 8.35377C32.4142 8.73921 28.7428 10.2867 25.9124 12.8024L26.9089 13.9236ZM36.447 9.84644L36.5951 11.3391C36.6129 11.3373 36.6204 11.3399 36.6242 11.3412C36.6299 11.3433 36.642 11.3491 36.6572 11.3639C36.6895 11.3952 36.7224 11.4541 36.7224 11.536L38.2224 11.5359L39.7224 11.5358C39.7223 9.76919 38.2571 8.15952 36.2989 8.35377L36.447 9.84644ZM38.2224 11.5359L36.7224 11.5359V36.4246L38.2224 36.4246L39.7224 36.4246V11.5359L38.2224 11.5359ZM25.7781 13.4507L24.2781 13.4507C24.2781 14.4379 24.9194 15.1392 25.6155 15.4254C26.3019 15.7076 27.2101 15.6628 27.9055 15.0447L26.9089 13.9236L25.9124 12.8025C26.1875 12.5579 26.5303 12.5578 26.7563 12.6507C26.9921 12.7477 27.2781 13.0257 27.2781 13.4507L25.7781 13.4507ZM26.9089 34.0369L27.9055 32.9158C27.2101 32.2976 26.3019 32.2529 25.6155 32.5351C24.9194 32.8213 24.2781 33.5225 24.2781 34.5098L25.7781 34.5098L27.2781 34.5098C27.2781 34.9348 26.992 35.2128 26.7563 35.3097C26.5303 35.4026 26.1876 35.4026 25.9124 35.158L26.9089 34.0369Z" fill="black" mask="url(#path-2-inside-1_3617_8714)"/>
<path d="M20.8759 20.7021C20.368 20.8382 20.0112 21.3053 19.812 21.8025C19.3911 21.4725 18.8484 21.2454 18.3404 21.3815C17.4065 21.6318 16.896 22.7525 17.1784 23.8066C17.779 26.0479 21.1934 26.9581 21.1934 26.9581C21.1934 26.9581 23.6953 24.4626 23.0947 22.2213C22.8123 21.1672 21.8099 20.4519 20.8759 20.7021Z" fill="black"/>
<path d="M29.6362 21.3814C29.1282 21.2453 28.5858 21.4713 28.1646 21.8023C27.9651 21.3061 27.6086 20.8381 27.1006 20.702C26.1667 20.4517 25.1643 21.167 24.8819 22.2211C24.2813 24.4624 26.7832 26.958 26.7832 26.958C26.7832 26.958 30.1976 26.0477 30.7982 23.8064C31.0806 22.7523 30.5701 21.6316 29.6362 21.3814Z" fill="black"/>
</svg>
