<svg width="48" height="48" viewBox="0 0 48 48" fill="none" xmlns="http://www.w3.org/2000/svg">
<rect width="48" height="48" rx="24" fill="#B8ACFF"/>
<mask id="path-2-inside-1_3617_8882" fill="white">
<path d="M9.77783 18C9.77783 12.4772 16.0459 8.00003 23.7778 8C31.5098 8 37.7778 12.4772 37.7778 18C37.7778 20.2514 36.7358 22.3286 34.978 24C36.7358 25.6714 37.7778 27.7486 37.7778 30C37.7778 35.5228 31.5098 40 23.7778 40C16.0459 40 9.77783 35.5228 9.77783 30C9.77783 27.7488 10.8192 25.6713 12.5767 24C10.8192 22.3287 9.77783 20.2512 9.77783 18Z"/>
</mask>
<path d="M9.77783 18C9.77783 12.4772 16.0459 8.00003 23.7778 8C31.5098 8 37.7778 12.4772 37.7778 18C37.7778 20.2514 36.7358 22.3286 34.978 24C36.7358 25.6714 37.7778 27.7486 37.7778 30C37.7778 35.5228 31.5098 40 23.7778 40C16.0459 40 9.77783 35.5228 9.77783 30C9.77783 27.7488 10.8192 25.6713 12.5767 24C10.8192 22.3287 9.77783 20.2512 9.77783 18Z" fill="white"/>
<path d="M9.77783 18L8.27783 18V18L9.77783 18ZM23.7778 8L23.7778 6.5L23.7778 6.5L23.7778 8ZM37.7778 18L39.2778 18V18L37.7778 18ZM34.978 24L33.9444 22.913C33.6466 23.1961 33.478 23.5891 33.478 24C33.478 24.4109 33.6466 24.8039 33.9444 25.087L34.978 24ZM37.7778 30L39.2778 30V30L37.7778 30ZM23.7778 40L23.7778 41.5L23.7778 41.5L23.7778 40ZM9.77783 30L8.27783 30V30L9.77783 30ZM12.5767 24L13.6103 25.087C13.9081 24.8038 14.0767 24.4109 14.0767 24C14.0767 23.5891 13.9081 23.1962 13.6103 22.913L12.5767 24ZM9.77783 18L11.2778 18C11.2778 15.8487 12.4961 13.7597 14.7502 12.1496C17.0015 10.5415 20.1885 9.50001 23.7778 9.5L23.7778 8L23.7778 6.5C19.6353 6.50001 15.8222 7.69711 13.0065 9.70835C10.1936 11.7175 8.27783 14.6284 8.27783 18L9.77783 18ZM23.7778 8L23.7778 9.5C27.3672 9.5 30.5542 10.5415 32.8055 12.1495C35.0596 13.7596 36.2778 15.8487 36.2778 18L37.7778 18L39.2778 18C39.2778 14.6284 37.362 11.7175 34.5492 9.70833C31.7334 7.69709 27.9204 6.5 23.7778 6.5L23.7778 8ZM37.7778 18L36.2778 18C36.2778 19.7601 35.4682 21.4641 33.9444 22.913L34.978 24L36.0116 25.087C38.0035 23.1931 39.2778 20.7427 39.2778 18L37.7778 18ZM34.978 24L33.9444 25.087C35.4682 26.5359 36.2778 28.2399 36.2778 30L37.7778 30L39.2778 30C39.2778 27.2573 38.0035 24.8069 36.0116 22.913L34.978 24ZM37.7778 30L36.2778 30C36.2778 32.1513 35.0596 34.2404 32.8055 35.8505C30.5542 37.4585 27.3672 38.5 23.7778 38.5L23.7778 40L23.7778 41.5C27.9204 41.5 31.7334 40.3029 34.5492 38.2917C37.362 36.2825 39.2778 33.3716 39.2778 30L37.7778 30ZM23.7778 40L23.7778 38.5C20.1885 38.5 17.0015 37.4585 14.7502 35.8504C12.4961 34.2403 11.2778 32.1513 11.2778 30L9.77783 30L8.27783 30C8.27783 33.3716 10.1936 36.2825 13.0065 38.2916C15.8222 40.3029 19.6353 41.5 23.7778 41.5L23.7778 40ZM9.77783 30L11.2778 30C11.2778 28.2398 12.0872 26.5355 13.6103 25.087L12.5767 24L11.543 22.913C9.55124 24.8071 8.27783 27.2579 8.27783 30L9.77783 30ZM12.5767 24L13.6103 22.913C12.0872 21.4645 11.2778 19.7602 11.2778 18L9.77783 18L8.27783 18C8.27783 20.7421 9.55124 23.1929 11.543 25.087L12.5767 24Z" fill="black" mask="url(#path-2-inside-1_3617_8882)"/>
<path d="M27.5001 20.5C27.7417 20.5 27.9345 20.6974 27.9689 20.9365C28.0626 21.5874 28.3647 22.1946 28.8351 22.665C29.3055 23.1355 29.9128 23.4375 30.5636 23.5312C30.8028 23.5656 31.0001 23.7584 31.0001 24C31.0001 24.2416 30.8028 24.4344 30.5636 24.4688C29.9128 24.5625 29.3055 24.8645 28.8351 25.335C28.3647 25.8054 28.0626 26.4126 27.9689 27.0635C27.9345 27.3026 27.7417 27.5 27.5001 27.5C27.2587 27.5 27.066 27.3034 27.0314 27.0645C26.9377 26.4134 26.6357 25.8055 26.1652 25.335C25.0863 24.2561 22.914 24.2561 21.8351 25.335C21.3647 25.8054 21.0626 26.4126 20.9689 27.0635C20.9345 27.3026 20.7417 27.5 20.5001 27.5C20.2587 27.5 20.066 27.3034 20.0314 27.0645C19.9377 26.4134 19.6357 25.8055 19.1652 25.335C18.6946 24.8644 18.0867 24.5624 17.4357 24.4688C17.1967 24.4342 17.0001 24.2415 17.0001 24C17.0001 23.7584 17.1975 23.5656 17.4366 23.5312C18.0875 23.4375 18.6947 23.1355 19.1652 22.665C19.6357 22.1945 19.9377 21.5866 20.0314 20.9355C20.066 20.6966 20.2587 20.5 20.5001 20.5C20.7417 20.5 20.9345 20.6974 20.9689 20.9365C21.0626 21.5874 21.3647 22.1946 21.8351 22.665C22.9138 23.7438 25.0864 23.7438 26.1652 22.665C26.6357 22.1945 26.9377 21.5866 27.0314 20.9355C27.066 20.6966 27.2587 20.5 27.5001 20.5Z" fill="black"/>
</svg>
