<svg width="48" height="48" viewBox="0 0 48 48" fill="none" xmlns="http://www.w3.org/2000/svg">
<rect width="48" height="48" rx="24" fill="#85D7A2"/>
<mask id="path-2-inside-1_3617_8556" fill="white">
<path fill-rule="evenodd" clip-rule="evenodd" d="M27.4062 10.1875C29.5614 8.0326 33.0558 8.03251 35.2109 10.1875L37.8125 12.7891C39.9676 14.9442 39.9674 18.4385 37.8125 20.5937L35.6184 22.7878C34.9489 23.4573 34.9489 24.5427 35.6184 25.2122L37.8125 27.4062C39.9675 29.5614 39.9676 33.0558 37.8125 35.2109L35.2109 37.8125C33.0558 39.9676 29.5614 39.9675 27.4062 37.8125L25.2122 35.6184C24.5427 34.949 23.4573 34.949 22.7878 35.6184L20.5937 37.8125C18.4385 39.9674 14.9441 39.9676 12.789 37.8125L10.1875 35.2109C8.0325 33.0558 8.03261 29.5614 10.1875 27.4062L12.3816 25.2122C13.051 24.5427 13.051 23.4573 12.3816 22.7878L10.1875 20.5937C8.0327 18.4385 8.03246 14.9441 10.1875 12.7891L12.789 10.1875C14.9441 8.03245 18.4385 8.03271 20.5937 10.1875L22.7878 12.3816C23.4573 13.051 24.5427 13.051 25.2122 12.3816L27.4062 10.1875Z"/>
</mask>
<path fill-rule="evenodd" clip-rule="evenodd" d="M27.4062 10.1875C29.5614 8.0326 33.0558 8.03251 35.2109 10.1875L37.8125 12.7891C39.9676 14.9442 39.9674 18.4385 37.8125 20.5937L35.6184 22.7878C34.9489 23.4573 34.9489 24.5427 35.6184 25.2122L37.8125 27.4062C39.9675 29.5614 39.9676 33.0558 37.8125 35.2109L35.2109 37.8125C33.0558 39.9676 29.5614 39.9675 27.4062 37.8125L25.2122 35.6184C24.5427 34.949 23.4573 34.949 22.7878 35.6184L20.5937 37.8125C18.4385 39.9674 14.9441 39.9676 12.789 37.8125L10.1875 35.2109C8.0325 33.0558 8.03261 29.5614 10.1875 27.4062L12.3816 25.2122C13.051 24.5427 13.051 23.4573 12.3816 22.7878L10.1875 20.5937C8.0327 18.4385 8.03246 14.9441 10.1875 12.7891L12.789 10.1875C14.9441 8.03245 18.4385 8.03271 20.5937 10.1875L22.7878 12.3816C23.4573 13.051 24.5427 13.051 25.2122 12.3816L27.4062 10.1875Z" fill="white"/>
<path d="M27.4062 10.1875L26.1941 8.97524L26.1941 8.97531L27.4062 10.1875ZM35.2109 10.1875L36.4231 8.97531L36.4231 8.97528L35.2109 10.1875ZM37.8125 12.7891L36.6003 14.0012V14.0012L37.8125 12.7891ZM37.8125 20.5937L39.0247 21.8059L39.0247 21.8059L37.8125 20.5937ZM37.8125 27.4062L39.0247 26.1941L39.0247 26.1941L37.8125 27.4062ZM37.8125 35.2109L39.0247 36.4231L39.0247 36.4231L37.8125 35.2109ZM35.2109 37.8125L36.4231 39.0247L36.4231 39.0247L35.2109 37.8125ZM27.4062 37.8125L26.1941 39.0247L26.1941 39.0247L27.4062 37.8125ZM20.5937 37.8125L21.8058 39.0248L21.8059 39.0247L20.5937 37.8125ZM12.789 37.8125L11.5769 39.0247V39.0247L12.789 37.8125ZM10.1875 35.2109L8.97527 36.4231L8.9753 36.4231L10.1875 35.2109ZM10.1875 27.4062L8.9753 26.1941L8.97522 26.1941L10.1875 27.4062ZM10.1875 20.5937L8.97518 21.8058L8.9753 21.8059L10.1875 20.5937ZM10.1875 12.7891L8.9753 11.5769L8.97529 11.5769L10.1875 12.7891ZM12.789 10.1875L11.5769 8.97531L11.5769 8.97531L12.789 10.1875ZM20.5937 10.1875L21.8059 8.97531L21.8058 8.9752L20.5937 10.1875ZM27.4062 10.1875L28.6183 11.3998C30.1041 9.91418 32.5132 9.91419 33.9988 11.3997L35.2109 10.1875L36.4231 8.97528C33.5985 6.15082 29.0187 6.15101 26.1941 8.97524L27.4062 10.1875ZM35.2109 10.1875L33.9987 11.3997L36.6003 14.0012L37.8125 12.7891L39.0247 11.5769L36.4231 8.97531L35.2109 10.1875ZM37.8125 12.7891L36.6003 14.0012C38.0859 15.4868 38.0859 17.8958 36.6002 19.3816L37.8125 20.5937L39.0247 21.8059C41.849 18.9813 41.8493 14.4015 39.0247 11.5769L37.8125 12.7891ZM37.8125 20.5937L36.6003 19.3816L34.4062 21.5756L35.6184 22.7878L36.8306 24L39.0247 21.8059L37.8125 20.5937ZM35.6184 25.2122L34.4062 26.4244L36.6003 28.6184L37.8125 27.4062L39.0247 26.1941L36.8306 24L35.6184 25.2122ZM37.8125 27.4062L36.6003 28.6184C38.0859 30.1042 38.0859 32.5131 36.6003 33.9988L37.8125 35.2109L39.0247 36.4231C41.8493 33.5985 41.8491 29.0187 39.0247 26.1941L37.8125 27.4062ZM37.8125 35.2109L36.6003 33.9988L33.9987 36.6003L35.2109 37.8125L36.4231 39.0247L39.0247 36.4231L37.8125 35.2109ZM35.2109 37.8125L33.9987 36.6003C32.5131 38.0859 30.1041 38.0859 28.6184 36.6003L27.4062 37.8125L26.1941 39.0247C29.0187 41.8491 33.5985 41.8493 36.4231 39.0247L35.2109 37.8125ZM27.4062 37.8125L28.6184 36.6003L26.4244 34.4062L25.2122 35.6184L24 36.8306L26.1941 39.0247L27.4062 37.8125ZM22.7878 35.6184L21.5756 34.4062L19.3816 36.6003L20.5937 37.8125L21.8059 39.0247L24 36.8306L22.7878 35.6184ZM20.5937 37.8125L19.3816 36.6002C17.8958 38.0859 15.4868 38.0859 14.0012 36.6003L12.789 37.8125L11.5769 39.0247C14.4015 41.8493 18.9813 41.8489 21.8058 39.0248L20.5937 37.8125ZM12.789 37.8125L14.0012 36.6003L11.3997 33.9988L10.1875 35.2109L8.9753 36.4231L11.5769 39.0247L12.789 37.8125ZM10.1875 35.2109L11.3997 33.9988C9.91419 32.5132 9.91419 30.1041 11.3998 28.6183L10.1875 27.4062L8.97522 26.1941C6.15104 29.0187 6.15081 33.5985 8.97527 36.4231L10.1875 35.2109ZM10.1875 27.4062L11.3997 28.6184L13.5937 26.4244L12.3816 25.2122L11.1694 24L8.9753 26.1941L10.1875 27.4062ZM12.3816 22.7878L13.5937 21.5756L11.3997 19.3816L10.1875 20.5937L8.9753 21.8059L11.1694 24L12.3816 22.7878ZM10.1875 20.5937L11.3998 19.3817C9.9142 17.8958 9.91422 15.4867 11.3997 14.0012L10.1875 12.7891L8.97529 11.5769C6.1507 14.4015 6.1512 18.9813 8.97518 21.8058L10.1875 20.5937ZM10.1875 12.7891L11.3997 14.0012L14.0012 11.3997L12.789 10.1875L11.5769 8.97531L8.9753 11.5769L10.1875 12.7891ZM12.789 10.1875L14.0012 11.3997C15.4867 9.91422 17.8958 9.9142 19.3817 11.3998L20.5937 10.1875L21.8058 8.9752C18.9813 6.15121 14.4015 6.15068 11.5769 8.97531L12.789 10.1875ZM20.5937 10.1875L19.3816 11.3997L21.5756 13.5937L22.7878 12.3816L24 11.1694L21.8059 8.97531L20.5937 10.1875ZM25.2122 12.3816L26.4244 13.5937L28.6184 11.3997L27.4062 10.1875L26.1941 8.97531L24 11.1694L25.2122 12.3816ZM22.7878 12.3816L21.5756 13.5937C22.9146 14.9327 25.0854 14.9327 26.4244 13.5937L25.2122 12.3816L24 11.1694V11.1694L22.7878 12.3816ZM12.3816 25.2122L13.5937 26.4244C14.9327 25.0854 14.9327 22.9146 13.5937 21.5756L12.3816 22.7878L11.1694 24H11.1694L12.3816 25.2122ZM25.2122 35.6184L26.4244 34.4062C25.0854 33.0673 22.9146 33.0673 21.5756 34.4062L22.7878 35.6184L24 36.8306V36.8306L25.2122 35.6184ZM35.6184 22.7878L34.4062 21.5756C33.0673 22.9146 33.0673 25.0854 34.4062 26.4244L35.6184 25.2122L36.8306 24V24L35.6184 22.7878Z" fill="black" mask="url(#path-2-inside-1_3617_8556)"/>
<path d="M21.8572 23.5713C21.8571 26.1426 20.9995 27 20.1423 27C19.2853 26.9997 18.4285 26.1422 18.4285 23.5713C18.4285 21.0003 19.2853 20.1429 20.1423 20.1426C20.9995 20.1426 21.8572 20.9999 21.8572 23.5713Z" fill="black"/>
<path d="M28.7144 23.5713C28.7143 26.1426 27.8566 27 26.9995 27C26.1425 26.9997 25.2857 26.1422 25.2856 23.5713C25.2856 21.0003 26.1425 20.1429 26.9995 20.1426C27.8567 20.1426 28.7144 20.9999 28.7144 23.5713Z" fill="black"/>
</svg>
