<svg width="48" height="48" viewBox="0 0 48 48" fill="none" xmlns="http://www.w3.org/2000/svg">
<path d="M0 24C0 10.7452 10.7452 0 24 0C37.2548 0 48 10.7452 48 24C48 37.2548 37.2548 48 24 48C10.7452 48 0 37.2548 0 24Z" fill="#FB83BF"/>
<mask id="path-2-inside-1_3617_8823" fill="white">
<path fill-rule="evenodd" clip-rule="evenodd" d="M24.3889 10C26.9808 10 29.2423 11.4095 30.4524 13.5029C30.5052 13.5018 30.5584 13.499 30.6116 13.499C34.4775 13.4993 37.6116 16.634 37.6116 20.5C37.6115 21.7755 37.2682 22.9701 36.6721 24C37.2681 25.0298 37.6116 26.2245 37.6116 27.5C37.6114 31.3659 34.4774 34.4997 30.6116 34.5C30.5584 34.5 30.5052 34.4973 30.4524 34.4961C29.2424 36.5899 26.981 38 24.3889 38C21.7743 37.9999 19.4961 36.5653 18.2942 34.4414C17.4116 34.5566 16.4924 34.5064 15.5793 34.2617C11.8451 33.2609 9.62857 29.4218 10.6291 25.6875C10.7914 25.0818 11.0293 24.5166 11.3284 23.998C10.7331 22.9687 10.3909 21.7746 10.3909 20.5C10.3909 16.6339 13.5248 13.4992 17.3909 13.499C17.6967 13.499 17.9977 13.5206 18.2932 13.5586C19.4951 11.4344 21.7741 10.0001 24.3889 10Z"/>
</mask>
<path fill-rule="evenodd" clip-rule="evenodd" d="M24.3889 10C26.9808 10 29.2423 11.4095 30.4524 13.5029C30.5052 13.5018 30.5584 13.499 30.6116 13.499C34.4775 13.4993 37.6116 16.634 37.6116 20.5C37.6115 21.7755 37.2682 22.9701 36.6721 24C37.2681 25.0298 37.6116 26.2245 37.6116 27.5C37.6114 31.3659 34.4774 34.4997 30.6116 34.5C30.5584 34.5 30.5052 34.4973 30.4524 34.4961C29.2424 36.5899 26.981 38 24.3889 38C21.7743 37.9999 19.4961 36.5653 18.2942 34.4414C17.4116 34.5566 16.4924 34.5064 15.5793 34.2617C11.8451 33.2609 9.62857 29.4218 10.6291 25.6875C10.7914 25.0818 11.0293 24.5166 11.3284 23.998C10.7331 22.9687 10.3909 21.7746 10.3909 20.5C10.3909 16.6339 13.5248 13.4992 17.3909 13.499C17.6967 13.499 17.9977 13.5206 18.2932 13.5586C19.4951 11.4344 21.7741 10.0001 24.3889 10Z" fill="white"/>
<path d="M24.3889 10V8.44444H24.3889L24.3889 10ZM30.4524 13.5029L29.1056 14.2814L29.5664 15.0786L30.487 15.0581L30.4524 13.5029ZM30.6116 13.499L30.6117 11.9435H30.6116L30.6116 13.499ZM37.6116 20.5L39.1671 20.5V20.5H37.6116ZM36.6721 24L35.3258 23.2208L34.8748 24L35.3257 24.7791L36.6721 24ZM37.6116 27.5L39.1671 27.5001V27.5H37.6116ZM30.6116 34.5L30.6116 36.0556H30.6117L30.6116 34.5ZM30.4524 34.4961L30.487 32.9409L29.5663 32.9204L29.1055 33.7178L30.4524 34.4961ZM24.3889 38L24.3889 39.5556H24.3889V38ZM18.2942 34.4414L19.648 33.6753L19.1319 32.7633L18.0929 32.8989L18.2942 34.4414ZM15.5793 34.2617L15.1766 35.7642L15.1768 35.7643L15.5793 34.2617ZM10.6291 25.6875L9.12658 25.2849L9.12658 25.2849L10.6291 25.6875ZM11.3284 23.998L12.6759 24.7752L13.1247 23.997L12.675 23.2193L11.3284 23.998ZM10.3909 20.5H8.83529V20.5L10.3909 20.5ZM17.3909 13.499L17.3908 11.9435H17.3908L17.3909 13.499ZM18.2932 13.5586L18.0946 15.1014L19.132 15.2349L19.6471 14.3246L18.2932 13.5586ZM24.3889 10V11.5556C26.4021 11.5556 28.1617 12.6485 29.1056 14.2814L30.4524 13.5029L31.7991 12.7244C30.3228 10.1706 27.5594 8.44444 24.3889 8.44444V10ZM30.4524 13.5029L30.487 15.0581C30.5074 15.0576 30.5263 15.0571 30.5415 15.0566C30.5491 15.0564 30.5567 15.0561 30.5629 15.0559C30.5696 15.0557 30.5751 15.0555 30.5805 15.0553C30.5912 15.055 30.5983 15.0548 30.6038 15.0547C30.6064 15.0546 30.6083 15.0546 30.6096 15.0546C30.6109 15.0546 30.6115 15.0546 30.6115 15.0546L30.6116 13.499L30.6116 11.9435C30.5601 11.9435 30.5139 11.9448 30.4833 11.9457C30.445 11.9469 30.4349 11.9474 30.4178 11.9478L30.4524 13.5029ZM30.6116 13.499L30.6114 15.0546C33.6182 15.0548 36.056 17.4929 36.056 20.5H37.6116H39.1671C39.1671 15.7751 35.3368 11.9438 30.6117 11.9435L30.6116 13.499ZM37.6116 20.5L36.056 20.5C36.056 21.4925 35.7895 22.4195 35.3258 23.2208L36.6721 24L38.0184 24.7792C38.7468 23.5208 39.1671 22.0585 39.1671 20.5L37.6116 20.5ZM36.6721 24L35.3257 24.7791C35.7895 25.5805 36.056 26.5076 36.056 27.5H37.6116H39.1671C39.1671 25.9415 38.7466 24.4791 38.0185 23.2209L36.6721 24ZM37.6116 27.5L36.056 27.4999C36.0559 30.5067 33.6183 32.9442 30.6114 32.9444L30.6116 34.5L30.6117 36.0556C35.3365 36.0552 39.1669 32.2251 39.1671 27.5001L37.6116 27.5ZM30.6116 34.5L30.6115 32.9444C30.6115 32.9444 30.6109 32.9444 30.6096 32.9444C30.6083 32.9444 30.6064 32.9444 30.6038 32.9443C30.5983 32.9442 30.5912 32.944 30.5805 32.9437C30.5751 32.9435 30.5696 32.9433 30.563 32.9431C30.5567 32.9429 30.5491 32.9427 30.5415 32.9424C30.5263 32.9419 30.5074 32.9414 30.487 32.9409L30.4524 34.4961L30.4178 36.0513C30.4349 36.0516 30.445 36.0521 30.4833 36.0533C30.5139 36.0542 30.5601 36.0556 30.6116 36.0556L30.6116 34.5ZM30.4524 34.4961L29.1055 33.7178C28.1616 35.3512 26.4021 36.4444 24.3889 36.4444V38V39.5556C27.56 39.5556 30.3232 37.8286 31.7992 35.2744L30.4524 34.4961ZM24.3889 38L24.3889 36.4444C22.3582 36.4444 20.5856 35.332 19.648 33.6753L18.2942 34.4414L16.9404 35.2075C18.4067 37.7986 21.1903 39.5555 24.3889 39.5556L24.3889 38ZM18.2942 34.4414L18.0929 32.8989C17.4063 32.9885 16.6926 32.9496 15.9819 32.7592L15.5793 34.2617L15.1768 35.7643C16.2923 36.0632 17.4169 36.1247 18.4955 35.9839L18.2942 34.4414ZM15.5793 34.2617L15.982 32.7592C13.0775 31.9808 11.3535 28.9946 12.1317 26.0901L10.6291 25.6875L9.12658 25.2849C7.90367 29.8491 10.6126 34.5411 15.1766 35.7642L15.5793 34.2617ZM10.6291 25.6875L12.1317 26.0901C12.2581 25.6184 12.4431 25.1788 12.6759 24.7752L11.3284 23.998L9.98082 23.2209C9.61551 23.8544 9.32477 24.5452 9.12658 25.2849L10.6291 25.6875ZM11.3284 23.998L12.675 23.2193C12.2121 22.4189 11.9464 21.4925 11.9464 20.5L10.3909 20.5L8.83529 20.5C8.83531 22.0568 9.25403 23.5184 9.98175 24.7768L11.3284 23.998ZM10.3909 20.5H11.9464C11.9464 17.4928 14.3841 15.0547 17.3909 15.0546L17.3909 13.499L17.3908 11.9435C12.6655 11.9437 8.83529 15.775 8.83529 20.5H10.3909ZM17.3909 13.499L17.3909 15.0546C17.6236 15.0546 17.858 15.071 18.0946 15.1014L18.2932 13.5586L18.4918 12.0158C18.1374 11.9702 17.7697 11.9435 17.3908 11.9435L17.3909 13.499ZM18.2932 13.5586L19.6471 14.3246C20.5844 12.668 22.3577 11.5556 24.3889 11.5556L24.3889 10L24.3889 8.44444C21.1905 8.44451 18.4057 10.2008 16.9393 12.7926L18.2932 13.5586Z" fill="black" mask="url(#path-2-inside-1_3617_8823)"/>
<path d="M22.4183 26.6706C22.0148 26.9265 21.4988 26.7747 21.2658 26.3315L19.5783 23.1222C19.3454 22.6791 19.4836 22.1125 19.8872 21.8567C20.2907 21.6009 20.8067 21.7527 21.0397 22.1958L22.7272 25.4051C22.9601 25.8482 22.8219 26.4148 22.4183 26.6706Z" fill="black"/>
<path d="M18.1998 26.6706C18.6034 26.9265 19.1194 26.7747 19.3524 26.3315L21.0398 23.1222C21.2728 22.6791 21.1345 22.1125 20.731 21.8567C20.3274 21.6009 19.8114 21.7527 19.5784 22.1958L17.891 25.4051C17.658 25.8482 17.7963 26.4148 18.1998 26.6706Z" fill="black"/>
<path d="M26.6373 26.6706C27.0409 26.9265 27.5569 26.7747 27.7899 26.3315L29.4773 23.1222C29.7103 22.6791 29.572 22.1125 29.1685 21.8567C28.7649 21.6009 28.2489 21.7527 28.0159 22.1958L26.3285 25.4051C26.0955 25.8482 26.2338 26.4148 26.6373 26.6706Z" fill="black"/>
<path d="M30.8558 26.6706C30.4523 26.9265 29.9363 26.7747 29.7033 26.3315L28.0159 23.1222C27.7829 22.6791 27.9211 22.1125 28.3247 21.8567C28.7282 21.6009 29.2442 21.7527 29.4772 22.1958L31.1647 25.4051C31.3976 25.8482 31.2594 26.4148 30.8558 26.6706Z" fill="black"/>
</svg>
